<svg id="Layer_1" height="512" viewBox="0 0 150 150" width="512" xmlns="http://www.w3.org/2000/svg" data-name="Layer 1"><circle cx="75" cy="75" fill="#ea8953" r="64"/><rect fill="#3a556a" height="80.53" rx="4.09" width="47.22" x="51.39" y="34.74"/><path d="m54.3 42.65h41.4v60.87h-41.4z" fill="#27a2db"/><path d="m80.23 38.13h-10.46a.83.83 0 1 0 0 1.66h10.46a.83.83 0 1 0 0-1.66z" fill="#2f4859"/><path d="m75 106.26a2.74 2.74 0 1 0 2.74 2.74 2.74 2.74 0 0 0 -2.74-2.74z" fill="#2f4859"/><path d="m75 51.84a10.89 10.89 0 1 0 10.88 10.89 10.89 10.89 0 0 0 -10.88-10.89z" fill="#2f4859"/><path d="m75 52.82a9.91 9.91 0 0 0 -6.38 17.48c.21.18.43.35.65.51a2.36 2.36 0 0 1 3.53-1.1c1.82 1.17 4.32.38 6.4.35a2.37 2.37 0 0 1 1.7.61l.48-.37a9.91 9.91 0 0 0 -6.38-17.48z" fill="#ebf0f3"/><path d="m81.38 70.3a9.9 9.9 0 0 1 -12.76 0l.32-2.56a1.72 1.72 0 0 1 1-1.32 8 8 0 0 1 1.59-.52c.33-.07.65-.13.93-.17.64-.1 1.08-.12 1.08-.12v-.94a4.29 4.29 0 0 1 -1.39-2.32h-.08c-.24 0-.49-.32-.57-.81s0-.92.29-1h.11c0-.29-.06-.65-.1-1a3.33 3.33 0 0 1 1.1-3.14c2.17-1.59 5.61 0 5.52 2.67v.27c0 .45-.11.89-.18 1.28.24 0 .37.47.29 1s-.34.85-.58.81h-.07a4.22 4.22 0 0 1 -1.38 2.32v.93a10.66 10.66 0 0 1 1.08.12c.28 0 .6.1.94.17a7.81 7.81 0 0 1 1.57.52 1.7 1.7 0 0 1 1 1.32z" fill="#3a556a"/><path d="m62.18 79.78h25.64v4.73h-25.64z" fill="#ebf0f3"/><path d="m62.18 88.91h25.64v4.73h-25.64z" fill="#ebf0f3"/><g fill="#3a556a"><path d="m64.05 91.22.16-.52a5.61 5.61 0 0 1 .84.35 8.92 8.92 0 0 1 -.07-.9h.52a6.88 6.88 0 0 1 -.08.9 6.23 6.23 0 0 1 .85-.35l.17.52a5.23 5.23 0 0 1 -.9.2 5.92 5.92 0 0 1 .62.68l-.43.31a8.44 8.44 0 0 1 -.5-.78 5.63 5.63 0 0 1 -.47.78l-.43-.31a8.07 8.07 0 0 1 .6-.68c-.31-.06-.6-.13-.88-.2z"/><path d="m68.92 91.22.17-.52a6.12 6.12 0 0 1 .84.35 8.92 8.92 0 0 1 -.07-.9h.52c0 .24 0 .54-.08.9a6.23 6.23 0 0 1 .85-.35l.17.52a5.23 5.23 0 0 1 -.9.2 7 7 0 0 1 .62.68l-.43.31a8.44 8.44 0 0 1 -.5-.78 6.84 6.84 0 0 1 -.47.78l-.43-.31a8.07 8.07 0 0 1 .6-.68z"/><path d="m73.8 91.22.2-.52a6.72 6.72 0 0 1 .84.35c0-.43-.07-.74-.08-.9h.53c0 .24 0 .54-.08.9a5.75 5.75 0 0 1 .79-.35l.17.52a5.13 5.13 0 0 1 -.91.2 5.79 5.79 0 0 1 .63.68l-.44.31a8.68 8.68 0 0 1 -.49-.78 6.84 6.84 0 0 1 -.47.78l-.43-.31a8.07 8.07 0 0 1 .6-.68z"/><path d="m78.68 91.22.17-.52a5.87 5.87 0 0 1 .83.35c0-.43-.07-.74-.07-.9h.53q0 .36-.09.9a6.39 6.39 0 0 1 .86-.35l.17.52a5.13 5.13 0 0 1 -.91.2 5.79 5.79 0 0 1 .63.68l-.44.31a8.68 8.68 0 0 1 -.49-.78 5.53 5.53 0 0 1 -.48.78l-.39-.31a8.07 8.07 0 0 1 .6-.68z"/><path d="m83.56 91.22.17-.52a5.87 5.87 0 0 1 .83.35c0-.43-.07-.74-.07-.9h.51q0 .36-.09.9a6.39 6.39 0 0 1 .86-.35l.16.52a4.85 4.85 0 0 1 -.9.2 5.12 5.12 0 0 1 .62.68l-.43.31a8.44 8.44 0 0 1 -.5-.78 5.63 5.63 0 0 1 -.47.78l-.43-.31c.29-.34.49-.57.61-.68-.3-.06-.59-.13-.87-.2z"/><circle cx="65.24" cy="82.33" r=".6"/><circle cx="70.12" cy="82.33" r=".6"/><circle cx="75" cy="82.33" r=".6"/><circle cx="79.88" cy="82.33" r=".6"/><circle cx="84.76" cy="82.33" r=".6"/></g></svg>